# xmcd
#
# Track frame offsets:
#	150
#	11497
#	28736
#	42598
#	58757
#	69573
#	79464
#	91662
#	103553
#	115031
#	126849
#	141631
#	155928
#	169196
#
# Disc length: 2423 seconds
# Revision: 0
# Processed by: cddbd v1.5.2PL0 Copyright (c) Steve Scherf et al.
# Submitted via: dBpowerAMP V12.0
#
DISCID=c709750e
DTITLE=Monroe Crossing - Monroe Crossing Plays Classic Country
DYEAR=2017
DGENRE=Country
TTITLE0=The Race Is On
TTITLE1=Crazy Arms
TTITLE2=Old Fashioned Love
TTITLE3=Today I Started Loving You Again
TTITLE4=Ramblin' Man
TTITLE5=Wake Up Little Susie
TTITLE6=A Poor Man's Roses
TTITLE7=Fräulein
TTITLE8=If I Could Only Win Your Love
TTITLE9=Six Days on the Road
TTITLE10=Making Believe
TTITLE11=Don't Take Your Guns to Town
TTITLE12=Tennessee Waltz
TTITLE13=Wabash Cannonball
EXTD=
EXTT0=
EXTT1=
EXTT2=
EXTT3=
EXTT4=
EXTT5=
EXTT6=
EXTT7=
EXTT8=
EXTT9=
EXTT10=
EXTT11=
EXTT12=
EXTT13=
PLAYORDER=
